<svg width="800" height="800" viewBox="0 0 800 800" fill="none" xmlns="http://www.w3.org/2000/svg">
<path d="M751.457 373.52C751.457 312.496 701.617 262.8 640.561 262.8C579.505 262.8 529.633 312.48 529.633 373.52C529.633 428.48 569.569 473.792 621.937 482.528V598.8C621.937 689.424 548.385 762.976 457.761 762.976C367.137 762.976 293.569 689.408 293.569 598.8L293.169 465.6C336.145 459.872 378.145 434.736 415.505 391.808C420.993 385.504 422.657 377.376 421.713 369.616C470.545 305.056 500.833 217.136 500.833 149.552C500.833 45.216 454.081 34.384 376.769 16.688L376.657 16.496C371.905 6.928 362.305 0 350.673 0C334.337 0 321.089 13.232 321.089 29.376C321.089 45.712 334.321 58.944 350.673 58.944C357.137 58.944 363.201 56.256 368.017 52.432L368.705 52.688C443.761 69.92 464.017 74.592 464.017 149.552C464.017 208.992 435.889 288.592 392.897 346.064C385.777 346.48 378.737 349.616 373.473 355.472C351.505 380.896 316.401 411.328 274.929 411.328C233.489 411.328 198.417 381.184 176.449 355.824C171.169 349.968 164.145 346.832 157.073 346.432C113.969 288.752 85.7769 209.056 85.7769 149.536C85.7769 74.528 105.697 69.872 181.217 52.64L181.473 52.4C186.657 56.224 192.305 58.928 199.185 58.928C215.521 58.928 228.753 45.68 228.753 29.36C228.737 13.232 215.521 0 199.169 0C187.505 0 177.921 6.928 172.833 16.464L172.769 16.48C95.3769 34.336 48.5449 44.976 48.5449 149.552C48.5449 217.2 78.9449 305.44 128.209 369.984C127.265 377.744 128.945 385.888 134.433 392.176C171.761 434.816 213.361 459.856 256.289 465.6L256.337 598.784C256.353 709.744 346.817 800 457.761 800C568.705 800 658.785 709.744 658.785 598.784V482.512C711.137 473.776 751.457 428.464 751.457 373.52ZM640.561 447.6C599.873 447.6 566.481 414.416 566.481 373.552C566.481 332.848 599.873 299.68 640.561 299.68C681.249 299.68 714.257 332.848 714.257 373.552C714.273 414.4 681.249 447.6 640.561 447.6Z" fill="#14B8A6"/>
<path d="M640.561 318.258C610.001 318.258 585.105 342.978 585.105 373.538C585.105 404.274 610.001 428.962 640.561 428.962C671.105 428.962 696.017 404.274 696.017 373.538C696.017 342.978 671.105 318.258 640.561 318.258Z" fill="#14B8A6"/>
</svg>
